<mxfile host="app.diagrams.net" modified="2023-05-05T11:55:06.938Z" agent="Mozilla/5.0 (X11; Linux x86_64) AppleWebKit/537.36 (KHTML, like Gecko) Chrome/112.0.0.0 Safari/537.36" etag="1X5ODXMgvFaKqapqcPiu" version="21.2.9" type="device">
  <diagram id="WAzsuMfJP9HBtGjrsQDs" name="Page-2">
    <mxGraphModel dx="1434" dy="775" grid="1" gridSize="10" guides="1" tooltips="1" connect="1" arrows="1" fold="1" page="1" pageScale="1" pageWidth="850" pageHeight="1100" math="0" shadow="0">
      <root>
        <mxCell id="0" />
        <mxCell id="1" parent="0" />
        <mxCell id="fmtVYJ13Wu2P6itgzDH2-3" style="edgeStyle=orthogonalEdgeStyle;rounded=0;orthogonalLoop=1;jettySize=auto;html=1;" parent="1" source="ErOSwkzSqZq74KpiMdjM-1" edge="1">
          <mxGeometry relative="1" as="geometry">
            <mxPoint x="135" y="220" as="targetPoint" />
          </mxGeometry>
        </mxCell>
        <mxCell id="fmtVYJ13Wu2P6itgzDH2-4" value="&lt;font style=&quot;font-size: 14px;&quot;&gt;1&lt;/font&gt;" style="edgeLabel;html=1;align=center;verticalAlign=middle;resizable=0;points=[];fontSize=12;" parent="fmtVYJ13Wu2P6itgzDH2-3" vertex="1" connectable="0">
          <mxGeometry x="0.2444" y="-3" relative="1" as="geometry">
            <mxPoint x="-18" y="15" as="offset" />
          </mxGeometry>
        </mxCell>
        <mxCell id="fmtVYJ13Wu2P6itgzDH2-7" style="edgeStyle=orthogonalEdgeStyle;rounded=0;orthogonalLoop=1;jettySize=auto;html=1;" parent="1" source="ErOSwkzSqZq74KpiMdjM-1" target="fmtVYJ13Wu2P6itgzDH2-6" edge="1">
          <mxGeometry relative="1" as="geometry">
            <Array as="points">
              <mxPoint x="280" y="380" />
              <mxPoint x="280" y="380" />
            </Array>
          </mxGeometry>
        </mxCell>
        <mxCell id="fmtVYJ13Wu2P6itgzDH2-8" value="&lt;font style=&quot;font-size: 14px;&quot;&gt;2&lt;/font&gt;" style="edgeLabel;html=1;align=center;verticalAlign=middle;resizable=0;points=[];" parent="fmtVYJ13Wu2P6itgzDH2-7" vertex="1" connectable="0">
          <mxGeometry x="0.2667" y="3" relative="1" as="geometry">
            <mxPoint x="-25" y="23" as="offset" />
          </mxGeometry>
        </mxCell>
        <mxCell id="ErOSwkzSqZq74KpiMdjM-1" value="" style="ellipse;whiteSpace=wrap;html=1;shadow=0;labelBackgroundColor=none;fillStyle=auto;fontFamily=Helvetica;fontSize=12;gradientDirection=north;" parent="1" vertex="1">
          <mxGeometry x="60" y="340" width="150" height="80" as="geometry" />
        </mxCell>
        <mxCell id="fmtVYJ13Wu2P6itgzDH2-10" style="rounded=0;orthogonalLoop=1;jettySize=auto;html=1;entryX=0.5;entryY=0;entryDx=0;entryDy=0;edgeStyle=orthogonalEdgeStyle;" parent="1" edge="1">
          <mxGeometry relative="1" as="geometry">
            <Array as="points">
              <mxPoint x="50" y="379" />
              <mxPoint x="50" y="130" />
              <mxPoint x="440" y="130" />
            </Array>
            <mxPoint x="70.00008320005327" y="378.79999999999995" as="sourcePoint" />
            <mxPoint x="440" y="157.5" as="targetPoint" />
          </mxGeometry>
        </mxCell>
        <mxCell id="fmtVYJ13Wu2P6itgzDH2-11" value="&lt;font style=&quot;font-size: 14px;&quot;&gt;3&lt;/font&gt;" style="edgeLabel;html=1;align=center;verticalAlign=middle;resizable=0;points=[];" parent="fmtVYJ13Wu2P6itgzDH2-10" vertex="1" connectable="0">
          <mxGeometry x="0.2122" y="4" relative="1" as="geometry">
            <mxPoint x="213" y="-16" as="offset" />
          </mxGeometry>
        </mxCell>
        <mxCell id="fmtVYJ13Wu2P6itgzDH2-14" style="rounded=0;orthogonalLoop=1;jettySize=auto;html=1;edgeStyle=orthogonalEdgeStyle;" parent="1" source="ErOSwkzSqZq74KpiMdjM-2" target="fmtVYJ13Wu2P6itgzDH2-13" edge="1">
          <mxGeometry relative="1" as="geometry">
            <Array as="points">
              <mxPoint x="135" y="450" />
              <mxPoint x="720" y="450" />
              <mxPoint x="720" y="200" />
            </Array>
          </mxGeometry>
        </mxCell>
        <mxCell id="fmtVYJ13Wu2P6itgzDH2-15" value="&lt;font style=&quot;font-size: 14px;&quot;&gt;2&lt;/font&gt;" style="edgeLabel;html=1;align=center;verticalAlign=middle;resizable=0;points=[];" parent="fmtVYJ13Wu2P6itgzDH2-14" vertex="1" connectable="0">
          <mxGeometry x="0.063" y="2" relative="1" as="geometry">
            <mxPoint x="108" y="-258" as="offset" />
          </mxGeometry>
        </mxCell>
        <mxCell id="ErOSwkzSqZq74KpiMdjM-2" value="ServerHeistMuseum&lt;br&gt;GeneralRepos" style="ellipse;whiteSpace=wrap;html=1;shadow=0;labelBackgroundColor=none;fillStyle=auto;strokeColor=default;fontFamily=Helvetica;fontSize=12;fontColor=default;fillColor=#969696;gradientColor=none;gradientDirection=north;" parent="1" vertex="1">
          <mxGeometry x="70" y="347.5" width="130" height="62.5" as="geometry" />
        </mxCell>
        <mxCell id="fmtVYJ13Wu2P6itgzDH2-1" value="scon" style="ellipse;whiteSpace=wrap;html=1;shadow=0;labelBackgroundColor=none;fillStyle=auto;fontFamily=Helvetica;fontSize=12;gradientDirection=north;" parent="1" vertex="1">
          <mxGeometry x="90" y="160" width="105" height="60" as="geometry" />
        </mxCell>
        <mxCell id="fmtVYJ13Wu2P6itgzDH2-5" value="&lt;font style=&quot;font-size: 17px;&quot;&gt;1 -&amp;nbsp; instantiate, start, accept, end&lt;br&gt;2 -&amp;nbsp; instantiate&lt;br&gt;3 -&amp;nbsp; instantiate, start&lt;br&gt;4 -&amp;nbsp; readObject, writeObject, close&lt;br&gt;5 -&amp;nbsp; processAndReply&lt;br&gt;6 -&amp;nbsp; initSimul, setMasterThiefState, setOTState, setOrdinaryThief_MaxDisp, setMRoom_DT_outsideG,&amp;nbsp;&lt;br&gt;&lt;span style=&quot;background-color: initial;&quot;&gt;&lt;span style=&quot;&quot;&gt; &lt;/span&gt;&lt;span style=&quot;white-space: pre;&quot;&gt; &lt;/span&gt;setMRoom_NPaintings, &lt;span style=&quot;&quot;&gt; &lt;/span&gt;setAssaultParty_RId, setAParty_Elem_ID, setOTSituation,&amp;nbsp;&lt;/span&gt;&lt;span style=&quot;background-color: initial;&quot;&gt;setAParty_Elem_Pos, &lt;br&gt;&lt;span style=&quot;&quot;&gt; &lt;/span&gt;&lt;span style=&quot;white-space: pre;&quot;&gt; &lt;/span&gt;setAParty_Elem_CV, setStolenPaintings, shutdown&lt;/span&gt;&lt;br&gt;7 -&amp;nbsp; getMsgType, getLogFName, getMasterState, getOrdinaryID, gitOrdinaryTState, getMaxDispOT, getRoomID,&amp;nbsp;&lt;br&gt;&lt;span style=&quot;white-space: pre;&quot;&gt; &lt;/span&gt;getDistFromOutside, getNPaintings, getAssaultPartyID, getElementID, getnCanvasCollected, getOrdinarySit,&lt;br&gt;&lt;span style=&quot;white-space: pre;&quot;&gt; &lt;/span&gt;getOrdinaryAPPos, getOrdinaryTCV&lt;br&gt;8 -&amp;nbsp; instantiate, openForWriting, writelnStrign, close, openForAppending&lt;br&gt;&lt;/font&gt;" style="text;html=1;strokeColor=none;fillColor=none;align=left;verticalAlign=middle;whiteSpace=wrap;rounded=0;" parent="1" vertex="1">
          <mxGeometry x="50" y="480" width="730" height="360" as="geometry" />
        </mxCell>
        <mxCell id="fmtVYJ13Wu2P6itgzDH2-20" style="rounded=0;orthogonalLoop=1;jettySize=auto;html=1;entryX=0.308;entryY=1.014;entryDx=0;entryDy=0;entryPerimeter=0;" parent="1" source="fmtVYJ13Wu2P6itgzDH2-6" target="fmtVYJ13Wu2P6itgzDH2-13" edge="1">
          <mxGeometry relative="1" as="geometry" />
        </mxCell>
        <mxCell id="fmtVYJ13Wu2P6itgzDH2-21" value="&lt;font style=&quot;font-size: 14px;&quot;&gt;6&lt;/font&gt;" style="edgeLabel;html=1;align=center;verticalAlign=middle;resizable=0;points=[];" parent="fmtVYJ13Wu2P6itgzDH2-20" vertex="1" connectable="0">
          <mxGeometry x="0.1504" y="-1" relative="1" as="geometry">
            <mxPoint x="20" as="offset" />
          </mxGeometry>
        </mxCell>
        <mxCell id="fmtVYJ13Wu2P6itgzDH2-24" value="" style="edgeStyle=orthogonalEdgeStyle;rounded=0;orthogonalLoop=1;jettySize=auto;html=1;" parent="1" source="fmtVYJ13Wu2P6itgzDH2-6" target="fmtVYJ13Wu2P6itgzDH2-23" edge="1">
          <mxGeometry relative="1" as="geometry">
            <Array as="points">
              <mxPoint x="550" y="383" />
              <mxPoint x="550" y="383" />
            </Array>
          </mxGeometry>
        </mxCell>
        <mxCell id="fmtVYJ13Wu2P6itgzDH2-25" value="&lt;font style=&quot;font-size: 14px;&quot;&gt;7&lt;/font&gt;" style="edgeLabel;html=1;align=center;verticalAlign=middle;resizable=0;points=[];" parent="fmtVYJ13Wu2P6itgzDH2-24" vertex="1" connectable="0">
          <mxGeometry x="-0.25" y="3" relative="1" as="geometry">
            <mxPoint x="15" y="21" as="offset" />
          </mxGeometry>
        </mxCell>
        <mxCell id="fmtVYJ13Wu2P6itgzDH2-6" value="reposInter" style="ellipse;whiteSpace=wrap;html=1;shadow=0;labelBackgroundColor=none;fillStyle=auto;fontFamily=Helvetica;fontSize=12;gradientDirection=north;" parent="1" vertex="1">
          <mxGeometry x="385" y="347.5" width="110" height="62.5" as="geometry" />
        </mxCell>
        <mxCell id="fmtVYJ13Wu2P6itgzDH2-16" style="edgeStyle=orthogonalEdgeStyle;rounded=0;orthogonalLoop=1;jettySize=auto;html=1;entryX=1;entryY=0.5;entryDx=0;entryDy=0;" parent="1" source="fmtVYJ13Wu2P6itgzDH2-9" target="fmtVYJ13Wu2P6itgzDH2-1" edge="1">
          <mxGeometry relative="1" as="geometry">
            <mxPoint x="200" y="185" as="targetPoint" />
          </mxGeometry>
        </mxCell>
        <mxCell id="fmtVYJ13Wu2P6itgzDH2-17" value="&lt;font style=&quot;font-size: 14px;&quot;&gt;4&lt;/font&gt;" style="edgeLabel;html=1;align=center;verticalAlign=middle;resizable=0;points=[];rotation=0;" parent="fmtVYJ13Wu2P6itgzDH2-16" vertex="1" connectable="0">
          <mxGeometry x="-0.1247" relative="1" as="geometry">
            <mxPoint x="-11" y="-15" as="offset" />
          </mxGeometry>
        </mxCell>
        <mxCell id="fmtVYJ13Wu2P6itgzDH2-18" style="edgeStyle=orthogonalEdgeStyle;rounded=0;orthogonalLoop=1;jettySize=auto;html=1;" parent="1" source="fmtVYJ13Wu2P6itgzDH2-9" target="fmtVYJ13Wu2P6itgzDH2-6" edge="1">
          <mxGeometry relative="1" as="geometry" />
        </mxCell>
        <mxCell id="fmtVYJ13Wu2P6itgzDH2-19" value="&lt;font style=&quot;font-size: 14px;&quot;&gt;5&lt;/font&gt;" style="edgeLabel;html=1;align=center;verticalAlign=middle;resizable=0;points=[];" parent="fmtVYJ13Wu2P6itgzDH2-18" vertex="1" connectable="0">
          <mxGeometry x="0.302" y="4" relative="1" as="geometry">
            <mxPoint x="6" y="17" as="offset" />
          </mxGeometry>
        </mxCell>
        <mxCell id="fmtVYJ13Wu2P6itgzDH2-9" value="cliProxy" style="ellipse;whiteSpace=wrap;html=1;shadow=0;labelBackgroundColor=none;fillStyle=auto;strokeColor=default;fontFamily=Helvetica;fontSize=12;fontColor=default;fillColor=#969696;gradientColor=none;gradientDirection=north;" parent="1" vertex="1">
          <mxGeometry x="385" y="157.5" width="110" height="65" as="geometry" />
        </mxCell>
        <mxCell id="fmtVYJ13Wu2P6itgzDH2-28" value="" style="edgeStyle=orthogonalEdgeStyle;rounded=0;orthogonalLoop=1;jettySize=auto;html=1;" parent="1" source="fmtVYJ13Wu2P6itgzDH2-13" target="fmtVYJ13Wu2P6itgzDH2-27" edge="1">
          <mxGeometry relative="1" as="geometry">
            <Array as="points">
              <mxPoint x="610" y="140" />
              <mxPoint x="610" y="140" />
            </Array>
          </mxGeometry>
        </mxCell>
        <mxCell id="fmtVYJ13Wu2P6itgzDH2-29" value="&lt;font style=&quot;font-size: 14px;&quot;&gt;8&lt;/font&gt;" style="edgeLabel;html=1;align=center;verticalAlign=middle;resizable=0;points=[];" parent="fmtVYJ13Wu2P6itgzDH2-28" vertex="1" connectable="0">
          <mxGeometry x="-0.2667" y="4" relative="1" as="geometry">
            <mxPoint x="14" as="offset" />
          </mxGeometry>
        </mxCell>
        <mxCell id="fmtVYJ13Wu2P6itgzDH2-13" value="repos" style="ellipse;whiteSpace=wrap;html=1;shadow=0;labelBackgroundColor=none;fillStyle=auto;fontFamily=Helvetica;fontSize=12;gradientDirection=north;" parent="1" vertex="1">
          <mxGeometry x="550" y="170" width="110" height="60" as="geometry" />
        </mxCell>
        <mxCell id="fmtVYJ13Wu2P6itgzDH2-23" value="outMessage, inMessage" style="ellipse;whiteSpace=wrap;html=1;shadow=0;labelBackgroundColor=none;fillStyle=auto;fontFamily=Helvetica;fontSize=12;gradientDirection=north;" parent="1" vertex="1">
          <mxGeometry x="580" y="348.75" width="120" height="62.5" as="geometry" />
        </mxCell>
        <mxCell id="fmtVYJ13Wu2P6itgzDH2-27" value="log" style="ellipse;whiteSpace=wrap;html=1;shadow=0;labelBackgroundColor=none;fillStyle=auto;fontFamily=Helvetica;fontSize=12;gradientDirection=north;" parent="1" vertex="1">
          <mxGeometry x="555" y="70" width="105" height="60" as="geometry" />
        </mxCell>
      </root>
    </mxGraphModel>
  </diagram>
</mxfile>
